<svg role="img" viewBox="0 0 24 24" xmlns="http://www.w3.org/2000/svg"><title>Cookie</title><path d="M12.047 2.042c.21-.005.42.02.618.075 1.618.455 2.756 1.958 2.813 3.565.058 1.618-.952 3.185-2.457 3.808-.548.227-1.136.37-1.737.421v1.042c.958-.058 1.876-.242 2.72-.546.994-.357 1.835-.904 2.467-1.602.63-.697 1.072-1.53 1.288-2.43.217-.901.204-1.854-.039-2.75-.242-.896-.696-1.72-1.314-2.392-.62-.672-1.39-1.186-2.243-1.498-.852-.312-1.773-.45-2.68-.402-.907.048-1.78.236-2.554.554-.774.318-1.47.747-2.043 1.255-.574.508-1.038 1.12-1.36 1.79-.322.67-.513 1.397-.562 2.127-.048.73.026 1.466.22 2.16.193.695.5 1.34.903 1.896.403.557.9 1.032 1.456 1.393v1.042c-.997.04-1.973-.122-2.836-.476-.863-.354-1.628-.876-2.228-1.523-.6-.648-1.044-1.406-1.294-2.222-.25-.815-.288-1.683-.112-2.534.176-.85.555-1.637 1.103-2.29.548-.654 1.23-1.178 1.983-1.533.753-.355 1.582-.555 2.413-.585h.003zm2.893 3.084c-.372-.02-.74.027-1.09.14-.35.113-.672.291-.953.527-.28.236-.52.53-.708.87-.188.34-.308.718-.355 1.113-.047.395-.01.8.108 1.186.118.387.318.74.589 1.04.27.3.6.543.97.716.37.173.768.268 1.173.28.405.012.81-.06 1.19-.212.38-.152.72-.37 1-.642.28-.272.5-.59.652-.94.152-.35.227-.73.22-1.112-.007-.382-.093-.76-.252-1.11-.16-.35-.398-.66-.698-.91-.3-.25-.658-.428-1.04-.52-.382-.092-.78-.088-1.16.012zM8.5 9.75c-.36.007-.718.06-1.063.158-.345.098-.664.246-.943.44-.28.193-.525.432-.724.71-.2.277-.345.587-.43.915-.086.328-.105.67-.057 1.007.048.337.17.654.36.934.19.28.44.506.733.667.294.16.62.262.958.3.339.038.683.01 1.01-.082.327-.092.624-.224.875-.39.25-.165.46-.362.618-.58.158-.218.268-.46.325-.714.057-.254.056-.52-.004-.776-.06-.256-.175-.493-.336-.697-.16-.205-.366-.38-.603-.514-.237-.134-.502-.22-.775-.253-.273-.033-.548-.01-.81.067-.263.077-.5.192-.7.34-.2.147-.37.324-.503.523l-.047.055c.006-.004.012-.008.02-.012.4-.248.872-.38 1.354-.376.482.004.954.138 1.357.385.403.247.745.577.989.957.244.38.417.808.507 1.25.09.442.094.9.012 1.345-.082.446-.242.867-.47 1.24-.227.373-.523.696-.868.946-.345.25-.738.424-1.15.51-.412.086-.84.086-1.252 0-.413-.086-.8-.25-1.132-.48-.333-.23-.62-.52-.844-.85-.224-.33-.39-.7-.49-1.088-.1-.39-.123-.802-.068-1.21.055-.407.17-.8.338-1.16.168-.36.395-.685.667-.956.272-.27.595-.477.944-.606.349-.13.726-.2 1.105-.205h.004l.028-.003z"/></svg>